<svg
    xmlns="http://www.w3.org/2000/svg"
    xmlns:xlink="http://www.w3.org/1999/xlink"
    version="1.1"
    ref={svgRef}
    width="100"
    height="100"
    >
    <circle cx="100" cy="100" r="50" />
<defs />
    <g>
    <path
      fill="none"
      stroke="#02063B"
      paint-order="fill stroke markers"
      d=" M 20 418.215762281997 L 21 419.02410093036866 L 22 419.8320813582396 L 23 420.63968656411544 L 24 421.4468995543976 L 25 422.2537033437401 L 26 423.06008095540756 L 27 423.86601542163214 L 28 424.67148978397074 L 29 425.4764870936616 L 30 426.2809904119812 L 31 427.08498281060054 L 32 427.88844737194137 L 33 428.6913671895321 L 34 429.49372536836387 L 35 430.29550502524546 L 36 431.0966892891591 L 37 431.8972613016152 L 38 432.6972042170071 L 39 433.4965012029657 L 40 434.29513544071347 L 41 435.09309012541826 L 42 435.89034846654727 L 43 436.68689368822004 L 44 437.4827090295614 L 45 438.27777774505466 L 46 439.07208310489324 L 47 439.8656083953332 L 48 440.6583369190448 L 49 441.4502519954639 L 50 442.2413369611427 L 51 443.03157517010067 L 52 443.82094999417484 L 53 444.6094448233693 L 54 445.3970430662052 L 55 446.1837281500694 L 56 446.9694835215635 L 57 447.7542926468522 L 58 448.53813901201096 L 59 449.32100612337354 L 60 450.10287750787927 L 61 450.8837367134194 L 62 451.6635673091835 L 63 452.44235288600515 L 64 453.220077056707 L 65 453.9967234564459 L 66 454.77227574305715 L 67 455.54671759739824 L 68 456.32003272369235 L 69 457.0922048498713 L 70 457.8632177279178 L 71 458.6330551342075 L 72 459.4017008698502 L 73 460.16913876103075 L 74 460.93535265934963 L 75 461.7003264421623 L 76 462.46404401291875 L 77 463.2264893015022 L 78 463.9876462645673 L 79 464.7474988858771 L 80 465.5060311766413 L 81 466.2632271758512 L 82 467.0190709506169 L 83 467.7735465965016 L 84 468.52663823785673 L 85 469.2783300281559 L 86 470.0286061503283 L 87 470.7774508170917 L 88 471.52484827128416 L 89 472.2707827861963 L 90 473.0152386659017 L 91 473.75820024558726 L 92 474.499651891883 L 93 475.2395780031909 L 94 475.9779630100131 L 95 476.7147913752797 L 96 477.4500475946755 L 97 478.1837161969664 L 98 478.9157817443248 L 99 479.64622883265474 L 100 480.3750420919156 L 101 481.10220618644564 L 102 481.8277058152852 L 103 482.5515257124978 L 104 483.273650647492 L 105 483.9940654253418 L 106 484.712754887106 L 107 485.4297039101476 L 108 486.144897408452 L 109 486.85832033294395 L 110 487.56995767180473 L 111 488.2797944507879 L 112 488.98781573353426 L 113 489.69400662188616 L 114 490.3983522562012 L 115 491.10083781566453 L 116 491.80144851860115 L 117 492.50016962278653 L 118 493.19698642575713 L 119 493.89188426511964 L 120 494.58484851885953 L 121 495.2758646056485 L 122 495.96491798515177 L 123 496.65199415833365 L 124 497.33707866776274 L 125 498.02015709791624 L 126 498.7012150754831 L 127 499.3802382696667 L 128 500.057212392486 L 129 500.7321231990767 L 130 501.40495648799055 L 131 502.0756981014945 L 132 502.7443339258684 L 133 503.41084989170184 L 134 504.0752319741908 L 135 504.737466193432 L 136 505.3975386147176 L 137 506.05543534882804 L 138 506.7111425523248 L 139 507.3646464278412 L 140 508.01593322437276 L 141 508.664989237567 L 142 509.3118008100113 L 143 509.95635433152046 L 144 510.5986362394233 L 145 511.23863301884757 L 146 511.87633120300484 L 147 512.5117173734736 L 148 513.1447781604816 L 149 513.775500243187 L 150 514.4038703499594 L 151 515.0298752586582 L 152 515.6535017969113 L 153 516.2747368423923 L 154 516.8935673230962 L 155 517.5099802176152 L 156 518.1239625554117 L 157 518.7355014170925 L 158 519.3445839346791 L 159 519.9511972918801 L 160 520.5553287243597 L 161 521.1569655200065 L 162 521.7560950192014 L 163 522.3527046150837 L 164 522.9467817538165 L 165 523.5383139348505 L 166 524.1272887111877 L 167 524.7136936896424 L 168 525.2975165311029 L 169 525.8787449507907 L 170 526.4573667185189 L 171 527.0333696589497 L 172 527.6067416518505 L 173 528.1774706323491 L 174 528.7455445911876 L 175 529.3109515749745 L 176 529.8736796864373 L 177 530.4337170846719 L 178 530.991051985392 L 179 531.5456726611774 L 180 532.0975674417202 L 181 532.6467247140711 L 182 533.193132922883 L 183 533.7367805706547 L 184 534.2776562179725 L 185 534.8157484837511 L 186 535.351046045473 L 187 535.8835376394268 L 188 536.4132120609439 L 189 536.940058164635 L 190 537.4640648646238 L 191 537.9852211347807 L 192 538.5035160089549 L 193 539.0189385812048 L 194 539.5314780060277 L 195 540.041123498588 L 196 540.5478643349444 L 197 541.0516898522746 L 198 541.5525894491011 L 199 542.050552585513 L 200 542.5455687833883 L 201 543.0376276266147 L 202 543.5267187613082 L 203 544.0128318960312 L 204 544.4959568020093 L 205 544.9760833133462 L 206 545.4532013272373 L 207 545.9273008041832 L 208 546.3983717682004 L 209 546.8664043070311 L 210 547.3313885723518 L 211 547.793314779981 L 212 548.2521732100845 L 213 548.7079542073801 L 214 549.1606481813412 L 215 549.6102456063978 L 216 550.0567370221376 L 217 550.5001130335047 L 218 550.9403643109977 L 219 551.3774815908653 L 220 551.8114556753021 L 221 552.2422774326413 L 222 552.6699377975476 L 223 553.0944277712075 L 224 553.5157384215186 L 225 553.9338608832777 L 226 554.3487863583678 L 227 554.7605061159421 L 228 555.1690114926089 L 229 555.574293892613 L 230 555.9763447880175 L 231 556.3751557188821 L 232 556.7707182934421 L 233 557.1630241882842 L 234 557.5520651485227 L 235 557.937832987972 L 236 558.3203195893194 L 237 558.6995169042962 L 238 559.0754169538462 L 239 559.448011828295 L 240 559.8172936875146 L 241 560.18325476109 L 242 560.545887348482 L 243 560.9051838191888 L 244 561.2611366129076 L 245 561.613738239693 L 246 561.9629812801145 L 247 562.3088583854129 L 248 562.6513622776552 L 249 562.990485749887 L 250 563.3262216662848 L 251 563.658562962306 L 252 563.9875026448373 L 253 564.313033792342 L 254 564.6351495550059 L 255 564.953843154881 L 256 565.2691078860285 L 257 565.5809371146594 L 258 565.8893242792747 L 259 566.1942628908032 L 260 566.4957465327378 L 261 566.7937688612711 L 262 567.0883236054282 L 263 567.3794045671989 L 264 567.6670056216687 L 265 567.9511207171468 L 266 568.2317438752937 L 267 568.5088691912474 L 268 568.7824908337473 L 269 569.052603045257 L 270 569.3192001420853 L 271 569.582276514506 L 272 569.8418266268757 L 273 570.0978450177507 L 274 570.3503263000016 L 275 570.5992651609263 L 276 570.8446563623627 L 277 571.0864947407983 L 278 571.3247752074788 L 279 571.5594927485155 L 280 571.7906424249906 L 281 572.0182193730611 L 282 572.2422188040614 L 283 572.4626360046037 L 284 572.6794663366775 L 285 572.892705237747 L 286 573.102348220847 L 287 573.3083908746778 L 288 573.5108288636974 L 289 573.7096579282131 L 290 573.9048738844714 L 291 574.0964726247449 L 292 574.2844501174204 L 293 574.4688024070824 L 294 574.6495256145967 L 295 574.8266159371923 L 296 575.0000696485413 L 297 575.1698830988371 L 298 575.3360527148714 L 299 575.4985750001091 L 300 575.6574465347626 L 301 575.8126639758627 L 302 575.9642240573298 L 303 576.1121235900425 L 304 576.2563594619041 L 305 576.3969286379089 L 306 576.5338281602053 L 307 576.6670551481587 L 308 576.7966067984119 L 309 576.9224803849437 L 310 577.0446732591267 L 311 577.1631828497833 L 312 577.2780066632388 L 313 577.3891422833749 L 314 577.4965873716799 L 315 577.6003396672983 L 316 577.7003969870781 L 317 577.7967572256168 L 318 577.8894183553061 L 319 577.9783784263738 L 320 578.0636355669253 L 321 578.1451879829831 L 322 578.2230339585243 L 323 578.2971718555167 L 324 578.3676001139535 L 325 578.4343172518858 L 326 578.4973218654541 L 327 578.5566126289176 L 328 578.6121882946825 L 329 578.6640476933273 L 330 578.7121897336287 L 331 578.7566134025838 L 332 578.7973177654311 L 333 578.8343019656711 L 334 578.8675652250836 L 335 578.8971068437444 L 336 578.9229262000397 L 337 578.9450227506795 L 338 578.9633960307092 L 339 578.9780456535188 L 340 578.9889713108518 L 341 578.9961727728104 L 342 578.999649887862 L 343 578.9994025828413 L 344 578.9954308629519 L 345 578.9877348117668 L 346 578.9763145912259 L 347 578.961170441633 L 348 578.942302681651 L 349 578.9197117082942 L 350 578.8933979969214 L 351 578.8633621012245 L 352 578.8296046532178 L 353 578.7921263632243 L 354 578.7509280198608 L 355 578.7060104900211 L 356 578.6573747188585 L 357 578.6050217297648 L 358 578.5489526243499 L 359 578.4891685824177 L 360 578.425670861942 L 361 578.3584607990392 L 362 578.287539807941 L 363 578.2129093809644 L 364 578.13457108848 L 365 578.0525265788793 L 366 577.9667775785399 L 367 577.8773258917888 L 368 577.7841734008654 L 369 577.6873220658807 L 370 577.5867739247772 L 371 577.4825310932847 L 372 577.3745957648775 L 373 577.2629702107265 L 374 577.1476567796525 L 375 577.0286578980765 L 376 576.9059760699685 L 377 576.779613876795 L 378 576.6495739774646 L 379 576.515859108272 L 380 576.3784720828406 L 381 576.2374157920631 L 382 576.0926932040405 L 383 575.9443073640206 L 384 575.7922613943323 L 385 575.6365584943214 L 386 575.4772019402826 L 387 575.3141950853907 L 388 575.1475413596297 L 389 574.9772442697213 L 390 574.8033073990503 L 391 574.62573440759 L 392 574.4445290318249 L 393 574.2596950846716 L 394 574.0712364553992 L 395 573.8791571095474 L 396 573.6834610888421 L 397 573.4841525111124 L 398 573.2812355702016 L 399 573.0747145358805 L 400 572.8645937537572 L 401 572.6508776451852 L 402 572.4335707071712 L 403 572.2126775122794 L 404 571.9882027085364 L 405 571.7601510193329 L 406 571.5285272433237 L 407 571.2933362543279 L 408 571.0545830012256 L 409 570.812272507854 L 410 570.5664098729012 L 411 570.3170002698 L 412 570.0640489466177 L 413 569.807561225947 L 414 569.5475425047928 L 415 569.2839982544594 L 416 569.0169340204352 L 417 568.746355422276 L 418 568.4722681534864 L 419 568.1946779814008 L 420 567.9135907470611 L 421 567.6290123650946 L 422 567.3409488235891 L 423 567.0494061839668 L 424 566.7543905808571 L 425 566.4559082219677 L 426 566.153965387953 L 427 565.8485684322832 L 428 565.5397237811094 L 429 565.2274379331295 L 430 564.9117174594508 L 431 564.5925690034517 L 432 564.2699992806421 L 433 563.9440150785224 L 434 563.6146232564398 L 435 563.2818307454451 L 436 562.9456445481457 L 437 562.6060717385593 L 438 562.2631194619643 L 439 561.9167949347498 L 440 561.5671054442637 L 441 561.2140583486593 L 442 560.8576610767403 L 443 560.4979211278053 L 444 560.1348460714886 L 445 559.7684435476021 L 446 559.3987212659745 L 447 559.0256870062879 L 448 558.6493486179155 L 449 558.2697140197558 L 450 557.886791200066 L 451 557.5005882162936 L 452 557.1111131949078 L 453 556.7183743312274 L 454 556.322379889249 L 455 555.923138201473 L 456 555.5206576687283 L 457 555.1149467599951 L 458 554.7060140122275 L 459 554.2938680301731 L 460 553.8785174861927 L 461 553.4599711200765 L 462 553.0382377388621 L 463 552.6133262166475 L 464 552.1852454944051 L 465 551.7540045797938 L 466 551.3196125469688 L 467 550.8820785363911 L 468 550.4414117546353 L 469 549.9976214741954 L 470 549.5507170332901 L 471 549.1007078356658 L 472 548.6476033503998 L 473 548.1914131116996 L 474 547.7321467187033 L 475 547.2698138352775 L 476 546.8044241898134 L 477 546.3359875750227 L 478 545.8645138477314 L 479 545.390012928672 L 480 544.9124948022754 L 481 544.4319695164604 L 482 543.9484471824221 L 483 543.4619379744195 L 484 542.9724521295615 L 485 542.479999947591 L 486 541.9845917906684 L 487 541.486238083154 L 488 540.984949311388 L 489 540.4807360234702 L 490 539.9736088290379 L 491 539.4635783990425 L 492 538.9506554655256 L 493 538.4348508213925 L 494 537.9161753201856 L 495 537.3946398758553 L 496 536.8702554625312 L 497 536.3430331142906 L 498 535.8129839249269 L 499 535.2801190477152 L 500 534.7444496951784 L 501 534.2059871388517 L 502 533.6647427090436 L 503 533.1207277945998 L 504 532.5739538426617 L 505 532.0244323584267 L 506 531.4721749049054 L 507 530.9171931026787 L 508 530.3594986296531 L 509 529.799103220815 L 510 529.2360186679839 L 511 528.6702568195641 L 512 528.1018295802953 L 513 527.5307489110025 L 514 526.957026828344 L 515 526.3806754045586 L 516 525.8017067672115 L 517 525.2201330989394 L 518 524.6359666371939 L 519 524.0492196739839 L 520 523.4599045556174 L 521 522.8680336824411 L 522 522.2736195085802 L 523 521.6766745416755 L 524 521.077211342621 L 525 520.4752425252991 L 526 519.8707807563153 L 527 519.2638387547318 L 528 518.6544292917996 L 529 518.0425651906901 L 530 517.4282593262251 L 531 516.8115246246057 L 532 516.1923740631407 L 533 515.5708206699733 L 534 514.9468775238067 L 535 514.3205577536299 L 536 513.6918745384401 L 537 513.060841106966 L 538 512.42747073739 L 539 511.7917767570677 L 540 511.15377254224836 L 541 510.513471517793 L 542 509.8708871568921 L 543 509.22603298078195 L 544 508.57892255846014 L 545 507.9295695064003 L 546 507.27798748826524 L 547 506.6241902146196 L 548 505.9681914426414 L 549 505.3100049758325 L 550 504.6496446637281 L 551 503.9871244016055 L 552 503.3224581301915 L 553 502.655659835369 L 554 501.98674354788307 L 555 501.31572334304553 L 556 500.6426133404385 L 557 499.96742770361783 L 558 499.2901806398147 L 559 498.61088639963657 L 560 497.92955927676775 L 561 497.2462136076683 L 562 496.5608637712725 L 563 495.87352418868613 L 564 495.1842093228833 L 565 494.4929336784018 L 566 493.79971180103803 L 567 493.1045582775413 L 568 492.40748773530606 L 569 491.7085148420649 L 570 491.0076543055794 L 571 490.30492087333124 L 572 489.6003293322111 L 573 488.89389450820806 L 574 488.18563126609763 L 575 487.47555450912853 L 576 486.76367917870965 L 577 486.05002025409533 L 578 485.33459275207014 L 579 484.61741172663307 L 580 483.8984922686808 L 581 483.1778495056898 L 582 482.45549860139823 L 583 481.73145475548733 L 584 481.0057332032608 L 585 480.27834921532457 L 586 479.5493180972655 L 587 478.8186551893295 L 588 478.0863758660983 L 589 477.3524955361662 L 590 476.61702964181615 L 591 475.87999365869405 L 592 475.1414030954837 L 593 474.40127349358056 L 594 473.65962042676415 L 595 472.9164595008707 L 596 472.17180635346506 L 597 471.4256766535111 L 598 470.6780861010422 L 599 469.9290504268312 L 600 469.178585392059 L 601 468.42670678798294 L 602 467.67343043560476 L 603 466.9187721853376 L 604 466.16274791667234 L 605 465.4053735378436 L 606 464.6466649854951 L 607 463.886638224344 L 608 463.1253092468452 L 609 462.3626940728549 L 610 461.59880874929326 L 611 460.8336693498069 L 612 460.0672919744309 L 613 459.29969274924946 L 614 458.5308878260569 L 615 457.7608933820182 L 616 456.9897256193277 L 617 456.21740076486896 L 618 455.44393506987285 L 619 454.669344809576 L 620 453.89364628287785 L 621 453.11685581199805 L 622 452.338989742133 L 623 451.5600644411116 L 624 450.7800962990511 L 625 449.9991017280124 L 626 449.2170971616543 L 627 448.4340990548878 L 628 447.6501238835301 L 629 446.8651881439577 L 630 446.07930835275926 L 631 445.29250104638834 L 632 444.50478278081505 L 633 443.716170131178 L 634 442.92667969143514 L 635 442.1363280740153 L 636 441.3451319094678 L 637 440.5531078461129 L 638 439.76027254969176 L 639 438.9666427030152 L 640 438.17223500561306 L 641 437.37706617338273 L 642 436.58115293823727 L 643 435.7845120477533 L 644 434.98716026481924 L 645 434.1891143672815 L 646 433.39039114759225 L 647 432.5910074124561 L 648 431.79097998247585 L 649 430.990325691799 L 650 430.1890613877634 L 651 429.387203930543 L 652 428.58477019279263 L 653 427.7817770592932 L 654 426.97824142659647 L 655 426.17418020266956 L 656 425.36961030653873 L 657 424.56454866793416 L 658 423.75901222693284 L 659 422.9530179336027 L 660 422.1465827476459 L 661 421.3397236380417 L 662 420.53245758268946 L 663 419.72480156805165 L 664 418.91677258879633 L 665 418.1083876474392 L 666 417.2996637539862 L 667 416.4906179255756 L 668 415.6812671861197 L 669 414.87162856594676 L 670 414.0617191014427 L 671 413.25155583469234 L 672 412.4411558131211 L 673 411.63053608913634 L 674 410.8197137197681 L 675 410.00870576631064 L 676 409.1975292939634 L 677 408.3862013714715 L 678 407.574739070767 L 679 406.7631594666096 L 680 405.9514796362273 L 681 405.13971665895696 L 682 404.32788761588495 L 683 403.51600958948814 L 684 402.7040996632737 L 685 401.8921749214202 L 686 401.08025244841804 L 687 400.2683493287098 L 688 399.45648264633076 L 689 398.6446694845496 L 690 397.83292692550884 L 691 397.02127204986516 L 692 396.2097219364305 L 693 395.3982936618123 L 694 394.58700430005416 L 695 393.7758709222767 L 696 392.9649105963185 L 697 392.15414038637664 L 698 391.3435773526478 L 699 390.5332385509694 L 700 389.7231410324603 L 701 388.91330184316257 L 702 388.1037380236824 L 703 387.2944666088317 L 704 386.4855046272695 L 705 385.67686910114395 L 706 384.86857704573373 L 707 384.0606454690902 L 708 383.25309137167994 L 709 382.44593174602613 L 710 381.63918357635174 L 711 380.8328638382218 L 712 380.0269894981865 L 713 379.2215775134237 L 714 378.4166448313825 L 715 377.6122083894267 L 716 376.80828511447805 L 717 376.0048919226602 L 718 375.20204571894305 L 719 374.3997633967866 L 720 373.5980618377857 L 721 372.7969579113149 L 722 371.99646847417335 L 723 371.19661037022996 L 724 370.3974004300695 L 725 369.5988554706379 L 726 368.80099229488843 L 727 368.0038276914285 L 728 367.2073784341663 L 729 366.4116612819575 L 730 365.6166929782528 L 731 364.82249025074594 L 732 364.02906981102126 L 733 363.23644835420214 L 734 362.44464255860004 L 735 361.65366908536305 L 736 360.86354457812564 L 737 360.07428566265855 L 738 359.2859089465186 L 739 358.49843101869925 L 740 357.71186844928206 L 741 356.92623778908745 L 742 356.1415555693266 L 743 355.3578383012536 L 744 354.5751024758183 L 745 353.79336456331896 L 746 353.01264101305554 L 747 352.2329482529843 L 748 351.4543026893712 L 749 350.67672070644744 L 750 349.90021866606423 L 751 349.1248129073488 L 752 348.3505197463603 L 753 347.57735547574674 L 754 346.80533636440214 L 755 346.0344786571238 L 756 345.2647985742713 L 757 344.4963123114243 L 758 343.72903603904217 L 759 342.9629859021238 L 760 342.19817801986795 L 761 341.43462848533363 L 762 340.67235336510174 L 763 339.9113686989373 L 764 339.1516904994513 L 765 338.3933347517643 L 766 337.6363174131699 L 767 336.88065441279883 L 768 336.12636165128384 L 769 335.37345500042545 L 770 334.62195030285733 L 771 333.8718633717136 L 772 333.1232099902955 L 773 332.3760059117399 L 774 331.63026685868726 L 775 330.88600852295104 L 776 330.1432465651877 L 777 329.4019966145667 L 778 328.662274268442 L 779 327.9240950920239 L 780 327.1874746180512 L 781 326.4524283464646 L 782 325.7189717440806 L 783 324.9871202442657 L 784 324.25688924661216 L 785 323.5282941166135 L 786 322.80135018534145 L 787 322.0760727491233 L 788 321.35247706921984 L 789 320.6305783715047 L 790 319.9103918461435 L 791 319.1919326472743 L 792 318.4752158926891 L 793 317.76025666351524 L 794 317.04707000389817 L 795 316.33567092068535 L 796 315.62607438310977 L 797 314.9182953224755 L 798 314.21234863184344 L 799 313.50824916571753 L 800 312.80601173973264 L 801 312.1056511303428 L 802 311.4071820745098 L 803 310.7106192693938 L 804 310.01597737204344 L 805 309.32327099908775 L 806 308.63251472642867 L 807 307.9437230889339 L 808 307.2569105801317 L 809 306.57209165190545 L 810 305.88928071418945 L 811 305.20849213466636 L 812 304.5297402384641 L 813 303.853039307855 L 814 303.1784035819549 L 815 302.5058472564238 L 816 301.8353844831669 L 817 301.1670293700371 L 818 300.5007959805378 L 819 299.83669833352747 L 820 299.17475040292396 L 821 298.5149661174113 L 822 297.85735936014584 L 823 297.20194396846455 L 824 296.548733733594 L 825 295.8977424003596 L 826 295.24898366689683 L 827 294.602471184363 L 828 293.95821855664985 L 829 293.3162393400971 L 830 292.67654704320785 L 831 292.03915512636354 L 832 291.4040770015412 L 833 290.7713260320315 L 834 290.14091553215655 L 835 289.512858766991 L 836 288.8871689520817 L 837 288.2638592531709 L 838 287.64294278591797 L 839 287.02443261562416 L 840 286.4083417569577 L 841 285.7946831736795 L 842 285.18346977837075 L 843 284.57471443216116 L 844 283.96842994445797 L 845 283.364629072677 L 846 282.76332452197386 L 847 282.16452894497655 L 848 281.5682549415194 L 849 280.9745150583779 L 850 280.38332178900475 L 851 279.7946875732667 L 852 279.2086247971831 L 853 278.6251457926652 L 854 278.04426283725667 L 855 277.46598815387495 L 856 276.89033391055466 L 857 276.31731222019096 L 858 275.74693514028496 L 859 275.1792146726902 L 860 274.61416276335956 L 861 274.05179130209444 L 862 273.4921121222943 L 863 272.93513700070775 L 864 272.3808776571845 L 865 271.82934575442926 L 866 271.2805528977558 L 867 270.73451063484305 L 868 270.19123045549213 L 869 269.6507237913844 L 870 269.1130020158411 L 871 268.57807644358377 L 872 268.0459583304967 L 873 267.51665887338936 L 874 266.99018920976124 L 875 266.4665604175676 L 876 265.94578351498603 L 877 265.42786946018487 L 878 264.91282915109235 L 879 264.4006734251677 L 880 263.8914130591727 L 881 263.385058768945 L 882 262.88162120917275 L 883 262.3811109731706 L 884 261.88353859265635 L 885 261.38891453752956 L 886 260.8972492156513 L 887 260.40855297262493 L 888 259.9228360915788 L 889 259.44010879294933 L 890 258.9603812342667 L 891 258.48366350994036 L 892 258.00996565104697 L 893 257.53929762511916 L 894 257.07166933593635 L 895 256.6070906233154 L 896 256.1455712629046 L 897 255.6871209659771 L 898 255.2317493792271 L 899 254.77946608456662 L 900 254.330280598924 L 901 253.8842023740435 L 902 253.44124079628673 L 903 253.00140518643474 L 904 252.5647047994921 L 905 252.1311488244922 L 906 251.70074638430376 L 907 251.27350653543897 L 908 250.8494382678629 L 909 250.42855050480435 L 910 250.01085210256804 L 911 249.59635185034824 L 912 249.1850584700439 L 913 248.77698061607506 L 914 248.37212687520076 L 915 247.97050576633853 L 916 247.5721257403848 L 917 247.17699518003727 L 918 246.78512239961861 L 919 246.39651564490129 L 920 246.01118309293426 L 921 245.62913285187074 L 922 245.25037296079785 L 923 244.8749113895671 L 924 244.50275603862698 L 925 244.13391473885662 L 926 243.76839525140093 L 927 243.40620526750737 L 928 243.04735240836428 L 929 242.69184422494018 L 930 242.33968819782504 L 931 241.99089173707299 L 932 241.64546218204617 L 933 241.30340680126045 L 934 240.96473279223258 L 935 240.62944728132845 L 936 240.29755732361338 L 937 239.9690699027035 L 938 239.64399193061897 L 939 239.32233024763846 L 940 239.0040916221551 L 941 238.68928275053435 L 942 238.3779102569728 L 943 238.06998069335887 L 944 237.76550053913508 L 945 237.4644762011615 L 946 237.16691401358102 L 947 236.87282023768637 L 948 236.58220106178774 L 949 236.29506260108306 L 950 236.01141089752923 L 951 235.73125191971485 L 952 235.45459156273472 L 953 235.18143564806581 L 954 234.91178992344484 L 955 234.64566006274708 L 956 234.38305166586727 L 957 234.12397025860147 L 958 233.86842129253108 L 959 233.61641014490795 L 960 233.36794211854135 L 961 233.1230224416863 L 962 232.88165626793352 L 963 232.6438486761011 L 964 232.40960467012758 L 965 232.1789291789666 L 966 231.95182705648338 L 967 231.72830308135232 L 968 231.50836195695663 L 969 231.2920083112893 L 970 231.0792466968557 L 971 230.87008159057785 L 972 230.66451739370015 L 973 230.46255843169683 L 974 230.2642089541809 L 975 230.06947313481467 L 976 229.87835507122205 L 977 229.69085878490228 L 978 229.50698822114518 L 979 229.32674724894844 L 980 229.15013966093588 L 981 228.97716917327784 L 982 228.80783942561285 L 983 228.64215398097122 L 984 228.48011632569995 L 985 228.32172986938932 L 986 228.16699794480135 L 987 228.01592380779942 L 988 227.86851063727994 L 989 227.72476153510536 L 990 227.58467952603897 L 991 227.44826755768116 L 992 227.31552850040762 L 993 227.1864651473086 L 994 227.0610802141304 L 995 226.93937633921814 L 996 226.8213560834603 L 997 226.70702193023462 L 998 226.59637628535617 L 999 226.4894214770265 L 1000 226.38615975578477 L 1001 226.28659329446023 L 1002 226.1907241881267 L 1003 226.09855445405833 L 1004 226.01008603168728 L 1005 225.92532078256284 L 1006 225.84426049031214 L 1007 225.76690686060297 L 1008 225.69326152110744 L 1009 225.6233260214681 L 1010 225.55710183326516 L 1011 225.4945903499855 L 1012 225.4357928869934 L 1013 225.380710681503 L 1014 225.32934489255192 L 1015 225.28169660097726 L 1016 225.23776680939255 L 1017 225.19755644216687 L 1018 225.1610663454053 L 1019 225.12829728693103 L 1020 225.09924995626946 L 1021 225.07392496463336 L 1022 225.05232284491035 L 1023 225.03444405165138 L 1024 225.02028896106134 L 1025 225.00985787099117 L 1026 225.00315100093147 L 1027 225.00016849200793 L 1028 225.0009104069784 L 1029 225.00537673023152 L 1030 225.01356736778712 L 1031 225.02548214729808 L 1032 225.04112081805405 L 1033 225.06048305098668 L 1034 225.08356843867662 L 1035 225.110376495362 L 1036 225.1409066569487 L 1037 225.1751582810221 L 1038 225.2131306468609 L 1039 225.2548229554519 L 1040 225.30023432950716 L 1041 225.3493638134822 L 1042 225.40221037359623 L 1043 225.45877289785392 L 1044 225.5190501960687 L 1045 225.5830409998879 L 1046 225.65074396281943 L 1047 225.72215766026 L 1048 225.79728058952526 L 1049 225.87611116988137 L 1050 225.95864774257808 L 1051 226.04488857088396 L 1052 226.13483184012267 L 1053 226.22847565771127 L 1054 226.32581805320004 L 1055 226.4268569783139 L 1056 226.5315903069955 L 1057 226.64001583545007 L 1058 226.75213128219158 L 1059 226.86793428809108 L 1060 226.9874224164259 L 1061 227.1105931529313 L 1062 227.23744390585327 L 1063 227.36797200600287 L 1064 227.50217470681272 L 1065 227.64004918439454 L 1066 227.7815925375987 L 1067 227.92680178807518 L 1068 228.07567388033638 L 1069 228.22820568182118 L 1070 228.3843939829611 L 1071 228.54423549724766 L 1072 228.70772686130167 L 1073 228.87486463494392 L 1074 229.0456453012676 L 1075 229.22006526671217 L 1076 229.39812086113923 L 1077 229.57980833790958 L 1078 229.76512387396204 L 1079 229.95406356989398 L 1080 230.1466234500433 L 1081 230.34279946257223 L 1082 230.54258747955228 L 1083 230.74598329705142 L 1084 230.9529826352224 L 1085 231.16358113839289 L 1086 231.3777743751569 L 1087 231.59555783846835 L 1088 231.8169269457356 L 1089 232.04187703891816 L 1090 232.2704033846245 L 1091 232.5025011742117 L 1092 232.73816552388666 L 1093 232.97739147480897 L 1094 233.22017399319498 L 1095 233.46650797042386 L 1096 233.7163882231453 L 1097 233.96980949338817 L 1098 234.2267664486716 L 1099 234.48725368211683 L 1100 234.75126571256118 L 1101 235.01879698467323 L 1102 235.28984186906987 L 1103 235.56439466243472 L 1104 235.8424495876381 L 1105 236.12400079385853 L 1106 236.40904235670598 L 1107 236.6975682783465 L 1108 236.98957248762827 L 1109 237.28504884020956 L 1110 237.58399111868792 L 1111 237.88639303273098 L 1112 238.19224821920892 L 1113 238.50155024232828 L 1114 238.81429259376725 L 1115 239.13046869281288 L 1116 239.45007188649944 L 1117 239.7730954497484 L 1118 240.0995325855099 L 1119 240.42937642490588 L 1120 240.76262002737437 L 1121 241.0992563808159 L 1122 241.43927840174078 L 1123 241.78267893541832 L 1124 242.12945075602715 L 1125 242.4795865668075 L 1126 242.8330790002147 L 1127 243.18992061807387 L 1128 243.55010391173707 L 1129 243.91362130224073 L 1130 244.2804651404654 L 1131 244.65062770729662 L 1132 245.0241012137875 L 1133 245.40087780132217 L 1134 245.78094954178172 L 1135 246.1643084377107 L 1136 246.5509464224854 L 1137 246.94085536048368 L 1138 247.33402704725614 L 1139 247.7304532096988 L 1140 248.13012550622685 L 1141 248.53303552695073 L 1142 248.93917479385274 L 1143 249.34853476096546 L 1144 249.76110681455165 L 1145 250.17688227328554 L 1146 250.59585238843516 L 1147 251.01800834404693 L 1148 251.44334125713092 L 1149 251.87184217784775 L 1150 252.30350208969688 L 1151 252.73831190970657 L 1152 253.1762624886245 L 1153 253.61734461111092 L 1154 254.0615489959322 L 1155 254.50886629615607 L 1156 254.95928709934853 L 1157 255.41280192777168 L 1158 255.86940123858346 L 1159 256.3290754240379 L 1160 256.7918148116879 L 1161 257.2576096645884 L 1162 257.7264501815014 L 1163 258.19832649710213 L 1164 258.67322868218673 L 1165 259.1511467438809 L 1166 259.6320706258504 L 1167 260.1159902085129 L 1168 260.60289530925047 L 1169 261.09277568262394 L 1170 261.58562102058875 L 1171 262.08142095271165 L 1172 262.5801650463886 L 1173 263.08184280706496 L 1174 263.5864436784559 L 1175 264.0939570427686 L 1176 264.6043722209257 L 1177 265.1176784727899 L 1178 265.63386499739005 L 1179 266.15292093314844 L 1180 266.6748353581093 L 1181 267.1995972901687 L 1182 267.7271956873054 L 1183 268.2576194478138 L 1184 268.7908574105364 L 1185 269.32689835509984 L 1186 269.8657310021506 L 1187 270.4073440135919 L 1188 270.95172599282296 L 1189 271.4988654849784 L 1190 272.0487509771692 L 1191 272.60137089872524 L 1192 273.15671362143854 L 1193 273.7147674598082 L 1194 274.275520671286 L 1195 274.8389614565237 L 1196 275.4050779596212 L 1197 275.9738582683759 L 1198 276.5452904145337 L 1199 277.11936237404063 L 1200 277.69606206729566 L 1201 278.2753773594053 L 1202 278.85729606043867 L 1203 279.44180592568404 L 1204 280.02889465590636 L 1205 280.61854989760644 L 1206 281.21075924328045 L 1207 281.8055102316814 L 1208 282.402790348081 L 1209 283.0025870245333 L 1210 283.6048876401386 L 1211 284.2096795213098 L 1212 284.8169499420386 L 1213 285.4266861241632 L 1214 286.03887523763757 L 1215 286.65350440080107 L 1216 287.2705606806497 L 1217 287.89003109310784 L 1218 288.5119026033022 L 1219 289.1361621258355 L 1220 289.76279652506196 L 1221 290.39179261536384 L 1222 291.02313716142885 L 1223 291.65681687852816 L 1224 292.29281843279676 L 1225 292.9311284415136 L 1226 293.57173347338306 L 1227 294.21462004881784 L 1228 294.85977464022255 L 1229 295.50718367227796 L 1230 296.1568335222273 L 1231 296.8087105201626 L 1232 297.46280094931217 L 1233 298.1190910463294 L 1234 298.77756700158244 L 1235 299.4382149594448 L 1236 300.1010210185864 L 1237 300.7659712322667 L 1238 301.4330516086281 L 1239 302.10224811099 L 1240 302.77354665814437 L 1241 303.4469331246522 L 1242 304.1223933411402 L 1243 304.7999130945996 L 1244 305.47947812868495 L 1245 306.1610741440139 L 1246 306.84468679846844 L 1247 307.5303017074964 L 1248 308.21790444441433 L 1249 308.9074805407108 L 1250 309.59901548635116 L 1251 310.2924947300828 L 1252 310.9879036797412 L 1253 311.68522770255686 L 1254 312.38445212546384 L 1255 313.08556223540745 L 1256 313.7885432796548 L 1257 314.4933804661049 L 1258 315.2000589635997 L 1259 315.90856390223655 L 1260 316.6188803736809 L 1261 317.33099343147956 L 1262 318.04488809137615 L 1263 318.76054933162567 L 1264 319.4779620933109 L 1265 320.197111280659 L 1266 320.9179817613595 L 1267 321.64055836688254 L 1268 322.36482589279774 L 1269 323.0907690990948 L 1270 323.8183727105037 L 1271 324.5476214168161 L 1272 325.2784998732079 L 1273 326.0109927005618 L 1274 326.7450844857906 L 1275 327.48075978216224 L 1276 328.2180031096245 L 1277 328.9567989551305 L 1278 329.6971317729656 L 1279 330.43898598507394 L 1280 331.18234598138685 L 1281 331.92719612015065 L 1282 332.6735207282564 L 1283 333.4213041015693 L 1284 334.1705305052595 L 1285 334.9211841741326 L 1286 335.6732493129622 L 1287 336.4267100968211 L 1288 337.1815506714157 L 1289 337.93775515341855 L 1290 338.6953076308029 L 1291 339.45419216317777 L 1292 340.2143927821229 L 1293 340.9758934915249 L 1294 341.7386782679142 L 1295 342.50273106080175 L 1296 343.26803579301696 L 1297 344.03457636104616 L 1298 344.80233663537103 L 1299 345.5713004608085 L 1300 346.34145165685 L 1301 347.1127740180027 L 1302 347.8852513141301 L 1303 348.6588672907936 L 1304 349.4336056695944 L 1305 350.20945014851645 L 1306 350.9863844022687 L 1307 351.7643920826295 L 1308 352.5434568187901 L 1309 353.3235622176992 L 1310 354.1046918644079 L 1311 354.8868293224151 L 1312 355.66995813401365 L 1313 356.45406182063573 L 1314 357.23912388320076 L 1315 358.02512780246195 L 1316 358.812057039354 L 1317 359.59989503534104 L 1318 360.3886252127653 L 1319 361.17823097519533 L 1320 361.96869570777613 L 1321 362.7600027775781 L 1322 363.55213553394714 L 1323 364.3450773088552 L 1324 365.1388114172508 L 1325 365.93332115741043 L 1326 366.72858981128934 L 1327 367.52460064487406 L 1328 368.32133690853414 L 1329 369.1187818373747 L 1330 369.91691865158907 L 1331 370.71573055681216 L 1332 371.51520074447313 L 1333 372.31531239215013 L 1334 373.1160486639235 L 1335 373.91739271073027 L 1336 374.71932767071877 L 1337 375.5218366696034 L 1338 376.3249028210192 L 1339 377.1285092268782 L 1340 377.93263897772414 L 1341 378.7372751530887 L 1342 379.54240082184725 L 1343 380.3479990425753 L 1344 381.15405286390506 L 1345 381.96054532488165 L 1346 382.76745945532076 L 1347 383.57477827616515 L 1348 384.38248479984213 L 1349 385.1905620306209 L 1350 385.99899296497057 L 1351 386.80776059191703 L 1352 387.616847893402 L 1353 388.42623784464047 L 1354 389.2359134144791 L 1355 390.0458575657546 L 1356 390.85605325565206 L 1357 391.666483436064 L 1358 392.47713105394837 L 1359 393.28797905168807 L 1360 394.0990103674497 L 1361 394.9102079355423 L 1362 395.72155468677676 L 1363 396.5330335488249 L 1364 397.34462744657833 L 1365 398.1563193025085 L 1366 398.96809203702543 L 1367 399.7799285688373 L 1368 400.59181181531 L 1369 401.40372469282636 L 1370 402.2156501171455 L 1371 403.02757100376294 L 1372 403.83947026826934 L 1373 404.65133082671053 L 1374 405.46313559594677 L 1375 406.2748674940122 L 1376 407.08650944047434 L 1377 407.89804435679326 L 1378 408.70945516668144 L 1379 409.5207247964627 L 1380 410.33183617543153 L 1381 411.14277223621235 L 1382 411.9535159151189 L 1383 412.76405015251225 L 1384 413.5743578931613 L 1385 414.3844220866006 L 1386 415.19422568748934 L 1387 416.00375165597023 L 1388 416.8129829580278 L 1389 417.6219025658472 L 1390 418.4304934581717 L 1391 419.2387386206619 L 1392 420.04662104625294 L 1393 420.8541237355128 L 1394 421.66122969699995 L 1395 422.46792194762065 L 1396 423.27418351298627 L 1397 424.07999742777093 L 1398 424.88534673606813 L 1399 425.69021449174755 L 1400 426.4945837588117 L 1401 427.2984376117525 L 1402 428.1017591359066 L 1403 428.9045314278124 L 1404 429.7067375955652 L 1405 430.50836075917243 L 1406 431.3093840509092 L 1407 432.1097906156732 L 1408 432.90956361133925 L 1409 433.7086862091133 L 1410 434.5071415938874 L 1411 435.30491296459303 L 1412 436.1019835345545 L 1413 436.89833653184246 L 1414 437.69395519962677 L 1415 438.4888227965286 L 1416 439.28292259697366 L 1417 440.0762378915433 L 1418 440.8687519873266 L 1419 441.66044820827125 L 1420 442.45130989553473 L 1421 443.2413204078349 L 1422 444.0304631217995 L 1423 444.818721432317 L 1424 445.6060787528852 L 1425 446.39251851596055 L 1426 447.1780241733067 L 1427 447.9625791963429 L 1428 448.7461670764912 L 1429 449.5287713255245 L 1430 450.3103754759132 L 1431 451.09096308117176 L 1432 451.8705177162048 L 1433 452.6490229776525 L 1434 453.42646248423625 L 1435 454.20281987710234 L 1436 454.9780788201675 L 1437 455.7522230004618 L 1438 456.5252361284721 L 1439 457.29710193848473 L 1440 458.06780418892816 L 1441 458.8373266627139 L 1442 459.6056531675787 L 1443 460.3727675364247 L 1444 461.13865362765983 L 1445 461.90329532553733 L 1446 462.6666765404951 L 1447 463.42878120949354 L 1448 464.18959329635464 L 1449 464.94909679209877 L 1450 465.70727571528136 L 1451 466.46411411232975 L 1452 467.21959605787833 L 1453 467.97370565510425 L 1454 468.72642703606095 L 1455 469.4777443620132 L 1456 470.22764182376966 L 1457 470.97610364201574 L 1458 471.72311406764567 L 1459 472.46865738209385 L 1460 473.21271789766513 L 1461 473.955279957866 L 1462 474.6963279377331 L 1463 475.4358462441622 L 1464 476.1738193162365 L 1465 476.91023162555416 L 1466 477.6450676765546 L 1467 478.3783120068447 L 1468 479.10994918752453 L 1469 479.83996382351165 L 1470 480.5683405538652 L 1471 481.29506405210896 L 1472 482.0201190265542 L 1473 482.74349022062074 L 1474 483.46516241315885 L 1475 484.185120418769 L 1476 484.90334908812156 L 1477 485.6198333082754 L 1478 486.33455800299635 L 1479 487.04750813307356 L 1480 487.75866869663696 L 1481 488.4680247294723 L 1482 489.17556130533626 L 1483 489.88126353627047 L 1484 490.58511657291467 L 1485 491.28710560481954 L 1486 491.9872158607576 L 1487 492.685432609035 L 1488 493.38174115780066 L 1489 494.076126855356 L 1490 494.7685750904629 L 1491 495.4590712926514 L 1492 496.14760093252573 L 1493 496.83414952207085 L 1494 497.5187026149568 L 1495 498.2012458068428 L 1496 498.88176473568024 L 1497 499.56024508201506 L 1498 500.2366725692891 L 1499 500.9110329641401 L 1500 501.58331207670153 L 1501 502.2534957609014 L 1502 502.9215699147594 L 1503 503.58752048068396 L 1504 504.25133344576807 L 1505 504.9129948420837 L 1506 505.5724907469764 L 1507 506.22980728335773 L 1508 506.88493061999753 L 1509 507.5378469718148 L 1510 508.1885426001681 L 1511 508.8370038131438 L 1512 509.48321696584514 L 1513 510.12716846067906 L 1514 510.768844747642 L 1515 511.40823232460536 L 1516 512.0453177375994 L 1517 512.6800875810966 L 1518 513.3125284982932 L 1519 513.942627181391 L 1520 514.5703703718768 L 1521 515.1957448608017 L 1522 515.818737489059 L 1523 516.4393351476608 L 1524 517.0575247780141 L 1525 517.6732933721958 L 1526 518.2866279732257 L 1527 518.89751567534 L 1528 519.5059436242624 L 1529 520.1118990174743 L 1530 520.7153691044853 L 1531 521.3163411870996 L 1532 521.9148026196851 L 1533 522.5107408094387 L 1534 523.104143216651 L 1535 523.6949973549704 L 1536 524.2832907916662 L 1537 524.8690111478896 L 1538 525.4521460989347 L 1539 526.0326833744973"
      stroke-linecap="round"
      stroke-linejoin="round"
      stroke-miterlimit="10"
      stroke-width="16"
    />
    </g>
</svg>