<svg width="13" height="13" viewBox="0 0 14 14" fill="currentColor" stroke="currentColor" xmlns="http://www.w3.org/2000/svg">
<path d="M7.00065 0.333008C3.32065 0.333008 0.333984 3.31967 0.333984 6.99967C0.333984 10.6797 3.32065 13.6663 7.00065 13.6663C10.6807 13.6663 13.6673 10.6797 13.6673 6.99967C13.6673 3.31967 10.6807 0.333008 7.00065 0.333008ZM9.35398 7.81967L5.90065 10.213C5.39398 10.5663 5.10065 10.3597 5.24732 9.76634L5.88065 7.20634L4.78065 6.93301C4.28065 6.81301 4.22065 6.46634 4.64065 6.17301L8.09398 3.77967C8.60065 3.42634 8.89398 3.63301 8.74732 4.22634L8.11398 6.78634L9.21398 7.05967C9.71398 7.18634 9.77398 7.52634 9.35398 7.81967Z" fill="currentColor" />
</svg>