<?xml version="1.0" encoding="utf-8"?><!-- Uploaded to: SVG Repo, www.svgrepo.com, Generator: SVG Repo Mixer Tools -->
<svg width="13" height="13" fill="#3498db" viewBox="0 0 24 24" xmlns="http://www.w3.org/2000/svg">
<path d="M5.4 2.2C5.84183 1.86863 6.46863 1.95817 6.8 2.4L12 9.33333L17.2 2.4C17.5314 1.95817 18.1582 1.86863 18.6 2.2C19.0418 2.53137 19.1314 3.15817 18.8 3.6L13.25 11H17C17.5523 11 18 11.4477 18 12C18 12.5523 17.5523 13 17 13H13V15H17C17.5523 15 18 15.4477 18 16C18 16.5523 17.5523 17 17 17H13V21C13 21.5523 12.5523 22 12 22C11.4477 22 11 21.5523 11 21V17H7C6.44771 17 6 16.5523 6 16C6 15.4477 6.44771 15 7 15H11V13H7C6.44771 13 6 12.5523 6 12C6 11.4477 6.44771 11 7 11H10.75L5.2 3.6C4.86863 3.15817 4.95817 2.53137 5.4 2.2Z"/>
</svg>