<svg width="13" height="13" viewBox="0 0 16 16" fill="white" xmlns="http://www.w3.org/2000/svg"  >
<path d="M6.33366 0.0830078C7.49864 0.0829609 8.64044 0.408519 9.63023 1.02294C10.62 1.63737 11.4184 2.5162 11.9352 3.56026C12.452 4.60432 12.6668 5.77206 12.5552 6.93168C12.4436 8.09131 12.0101 9.19666 11.3037 10.123L15.2562 14.0772C15.4056 14.2271 15.4924 14.4284 15.4988 14.64C15.5053 14.8516 15.431 15.0578 15.2909 15.2166C15.1509 15.3754 14.9557 15.4749 14.7449 15.495C14.5342 15.5151 14.3236 15.4542 14.1562 15.3247L14.0778 15.2555L10.1237 11.303C9.33449 11.9048 8.41337 12.3099 7.43652 12.485C6.45967 12.6601 5.45518 12.6 4.50616 12.3098C3.55713 12.0195 2.69086 11.5075 1.97903 10.816C1.2672 10.1245 0.730275 9.27338 0.412678 8.33316C0.0950817 7.39294 0.00594736 6.39061 0.152651 5.4091C0.299354 4.42759 0.677678 3.49513 1.25632 2.68886C1.83496 1.8826 2.59727 1.22572 3.48019 0.772579C4.36311 0.319437 5.34124 0.0830602 6.33366 0.0830078ZM6.33366 1.74967C5.11808 1.74967 3.95229 2.23256 3.09275 3.0921C2.23321 3.95164 1.75032 5.11743 1.75032 6.33301C1.75032 7.54858 2.23321 8.71437 3.09275 9.57391C3.95229 10.4335 5.11808 10.9163 6.33366 10.9163C7.54923 10.9163 8.71502 10.4335 9.57456 9.57391C10.4341 8.71437 10.917 7.54858 10.917 6.33301C10.917 5.11743 10.4341 3.95164 9.57456 3.0921C8.71502 2.23256 7.54923 1.74967 6.33366 1.74967Z" />
</svg>